<svg width="103" height="32" viewBox="0 0 103 32" fill="none" xmlns="http://www.w3.org/2000/svg">
<path d="M2.625 23.05C2.375 23.2 2.075 23.4 1.725 23.65L1.5 22.75C7.15 19.15 11.75 16.35 15.3 14.35L17.325 13.15C18.075 12.55 18.9 11.85 19.8 11.05C21.7 9.55 22.7 8.825 22.8 8.875C23.05 8.875 23.175 9 23.175 9.25C23.175 9.45 22.975 9.825 22.575 10.375C22.175 10.875 21.6 11.475 20.85 12.175C20.15 12.875 19.725 13.325 19.575 13.525C18.825 14.275 17.575 16.675 15.825 20.725C14.125 24.725 13.2 26.875 13.05 27.175C13.05 27.375 13.1 27.475 13.2 27.475C13.35 27.475 13.45 27.45 13.5 27.4L21.9 22.075L21.975 23.05C21.375 23.4 20.375 24.025 18.975 24.925C17.575 25.825 16.575 26.45 15.975 26.8C15.425 27.15 14.6 27.675 13.5 28.375C12.4 29.025 11.55 29.5 10.95 29.8C10.35 30.1 9.65 30.45 8.85 30.85C6.8 31.45 5.5 31.75 4.95 31.75C4.9 31.75 4.875 31.75 4.875 31.75C3.525 31.75 2.425 31.35 1.575 30.55C0.725 29.75 0.3 28.825 0.3 27.775C0.3 26.725 0.65 25.825 1.35 25.075C2.1 24.325 2.975 23.95 3.975 23.95C4.975 23.95 5.475 24.35 5.475 25.15C5.475 25.6 5.3 26.025 4.95 26.425C4.65 26.825 4.25 27.025 3.75 27.025C3.3 27.025 3.025 26.8 2.925 26.35C2.875 25.9 2.75 25.675 2.55 25.675C2.2 25.675 1.9 25.85 1.65 26.2C1.45 26.55 1.35 27.05 1.35 27.7C1.35 28.35 1.65 29 2.25 29.65C2.85 30.25 3.7 30.55 4.8 30.55C5.9 30.55 6.925 30.15 7.875 29.35C8.875 28.55 9.55 27.85 9.9 27.25C10.25 26.65 11 24.975 12.15 22.225C13.3 19.425 14.5 17.225 15.75 15.625L15.9 15.325C15.9 15.275 15.825 15.25 15.675 15.25C15.275 15.25 11.95 17.2 5.7 21.1L2.625 23.05ZM37.3359 26.4C37.3359 28.1333 37.9226 29 39.0959 29H39.5759L40.2559 28.96L40.5359 30.24L37.6959 30.72C37.0293 30.8533 36.0559 31.1067 34.7759 31.48C34.4293 31.48 34.2559 31.3733 34.2559 31.16L34.1359 28.76C33.6559 29.4267 32.8693 30.0533 31.7759 30.64C30.6826 31.2 29.5226 31.48 28.2959 31.48C26.1093 31.48 24.3226 30.7333 22.9359 29.24C21.5493 27.72 20.8559 25.68 20.8559 23.12C20.8559 19.9733 21.7093 17.56 23.4159 15.88C25.1226 14.1733 27.1759 13.32 29.5759 13.32C31.2026 13.32 32.6559 13.6267 33.9359 14.24V6.2C33.9359 4.62667 33.2159 3.84 31.7759 3.84C31.4293 3.84 31.0826 3.88 30.7359 3.96L30.3759 2.76C33.1226 1.96 35.2026 1.24 36.6159 0.599998C37.0959 0.599998 37.3359 0.853331 37.3359 1.36V26.4ZM33.9359 18.8C33.9359 17.6267 33.5226 16.7067 32.6959 16.04C31.8693 15.3467 30.6826 15 29.1359 15C27.5893 15 26.4293 15.64 25.6559 16.92C24.8826 18.2 24.4959 19.92 24.4959 22.08C24.4959 24.2133 24.9893 25.9467 25.9759 27.28C26.9893 28.5867 28.2826 29.24 29.8559 29.24C30.4959 29.24 31.0826 29.1467 31.6159 28.96C32.1759 28.7467 32.5493 28.5733 32.7359 28.44C32.9759 28.28 33.3759 28 33.9359 27.6V18.8ZM46.1756 21.88C46.1756 23.96 46.6823 25.7867 47.6956 27.36C48.7356 28.9067 50.1223 29.68 51.8556 29.68C53.6156 29.68 54.909 29.08 55.7356 27.88C56.589 26.68 57.0156 25 57.0156 22.84C57.0156 20.6533 56.4556 18.8 55.3356 17.28C54.2423 15.76 52.8423 15 51.1356 15C49.429 15 48.1756 15.6267 47.3756 16.88C46.5756 18.1067 46.1756 19.7733 46.1756 21.88ZM51.4956 31.48C48.8823 31.48 46.7356 30.68 45.0556 29.08C43.3756 27.4533 42.5356 25.3333 42.5356 22.72C42.5356 20.08 43.389 17.8533 45.0956 16.04C46.829 14.2267 49.0023 13.32 51.6156 13.32C54.2556 13.32 56.4156 14.1467 58.0956 15.8C59.8023 17.4267 60.6556 19.56 60.6556 22.2C60.6556 24.8133 59.7756 27.0133 58.0156 28.8C56.2823 30.5867 54.109 31.48 51.4956 31.48ZM64.3475 16.24L63.7475 16.28L63.3875 15.12C65.2542 14.6667 66.6275 14.2133 67.5075 13.76C68.3875 13.3067 68.8808 13.0533 68.9875 13C69.3342 13 69.5475 13.0267 69.6275 13.08C69.6542 13.1333 69.7342 14.1467 69.8675 16.12C71.4408 14.2533 73.0008 13.32 74.5475 13.32C76.0942 13.32 77.0275 13.6267 77.3475 14.24C77.3475 14.8267 76.8808 15.72 75.9475 16.92C75.6542 17.32 75.4808 17.52 75.4275 17.52L72.2275 16.36H71.9875C71.4008 16.36 70.9075 16.6533 70.5075 17.24C70.1075 17.8267 69.9075 18.6533 69.9075 19.72V28.16C69.9075 28.64 70.1075 28.9867 70.5075 29.2C70.9075 29.4133 71.7342 29.52 72.9875 29.52L73.3475 31.12L68.7075 31L64.1475 31.12L63.8275 29.52C65.1075 29.4133 65.8675 29.3067 66.1075 29.2C66.3742 29.0667 66.5075 28.72 66.5075 28.16V18.8C66.5075 17.84 66.3342 17.1733 65.9875 16.8C65.6408 16.4267 65.0942 16.24 64.3475 16.24ZM85.5438 29.24C86.9038 29.24 87.9171 28.7867 88.5838 27.88V23.4C86.2904 23.8 84.7571 24.2533 83.9838 24.76C83.2104 25.24 82.8238 25.9333 82.8238 26.84C82.8771 27.6667 83.1571 28.28 83.6638 28.68C84.1704 29.0533 84.7971 29.24 85.5438 29.24ZM93.6638 29H94.5038C94.6371 29 94.7304 28.9867 94.7838 28.96C94.8904 29.6533 94.9838 30.08 95.0638 30.24C94.7438 30.4 94.0104 30.6533 92.8638 31C91.7438 31.32 90.9171 31.48 90.3838 31.48C89.8504 31.48 89.4771 31.2933 89.2638 30.92C89.0504 30.52 88.8904 29.8267 88.7838 28.84C88.3304 29.48 87.6504 30.0667 86.7438 30.6C85.8638 31.1333 84.9704 31.4267 84.0638 31.48H83.8638C82.5838 31.48 81.4771 31.12 80.5438 30.4C79.6371 29.68 79.1838 28.64 79.1838 27.28C79.1838 25.92 79.8104 24.88 81.0638 24.16C82.3438 23.4133 84.8504 22.6933 88.5838 22V19.6C88.5838 16.72 87.5038 15.28 85.3438 15.28C84.5971 15.28 83.8904 15.4667 83.2237 15.84V18.56C83.2237 18.6933 82.8638 18.8267 82.1438 18.96C81.4504 19.0933 80.9838 19.16 80.7438 19.16C80.5304 19.16 80.3171 19.1333 80.1038 19.08C79.8904 18.8667 79.7838 18.3867 79.7838 17.64C79.7838 16.8933 79.9971 16.28 80.4238 15.8C80.8238 15.2667 81.7838 14.72 83.3038 14.16C84.8238 13.6 86.0104 13.32 86.8638 13.32C90.2238 13.32 91.9038 15.2133 91.9038 19V27C91.9038 27.8533 92.0638 28.4 92.3838 28.64C92.7304 28.88 93.1571 29 93.6638 29ZM99.8716 31.2C99.2316 31.2 98.6982 31 98.2716 30.6C97.8449 30.1733 97.6316 29.64 97.6316 29C97.6316 28.36 97.8582 27.8133 98.3116 27.36C98.7649 26.88 99.3249 26.64 99.9916 26.64C100.658 26.64 101.192 26.84 101.592 27.24C102.018 27.6133 102.232 28.1333 102.232 28.8C102.232 29.44 102.005 30 101.552 30.48C101.098 30.96 100.538 31.2 99.8716 31.2Z" fill="#9C8DF6"/>
</svg>
